<svg xmlns="http://www.w3.org/2000/svg" width="57" height="57" viewBox="0 0 57 57"><defs><style>.a{fill:#373737;}.b{fill:#fff;}</style></defs><g transform="translate(-98 -4736)"><circle class="a" cx="28.5" cy="28.5" r="28.5" transform="translate(98 4736)"/><g transform="translate(110 4748)"><path class="b" d="M11.067,16.6A5.533,5.533,0,1,1,16.6,22.132,5.533,5.533,0,0,1,11.067,16.6m-2.991,0A8.523,8.523,0,1,0,16.6,8.075,8.523,8.523,0,0,0,8.075,16.6M23.467,7.737A1.992,1.992,0,1,0,25.46,5.746h0a1.993,1.993,0,0,0-1.992,1.991M9.893,30.109a9.174,9.174,0,0,1-3.082-.571A5.159,5.159,0,0,1,4.9,28.3a5.121,5.121,0,0,1-1.242-1.908,9.165,9.165,0,0,1-.571-3.082c-.08-1.75-.1-2.275-.1-6.708s.017-4.957.1-6.708a9.234,9.234,0,0,1,.571-3.082A5.159,5.159,0,0,1,4.9,4.9,5.115,5.115,0,0,1,6.81,3.658a9.165,9.165,0,0,1,3.082-.571c1.75-.08,2.275-.1,6.706-.1s4.957.017,6.708.1a9.234,9.234,0,0,1,3.082.571A5.142,5.142,0,0,1,28.3,4.9a5.142,5.142,0,0,1,1.242,1.909,9.165,9.165,0,0,1,.571,3.082c.08,1.751.1,2.275.1,6.708s-.016,4.957-.1,6.708a9.208,9.208,0,0,1-.571,3.082,5.5,5.5,0,0,1-3.151,3.149,9.165,9.165,0,0,1-3.082.571c-1.75.08-2.275.1-6.708.1s-4.957-.016-6.706-.1M9.755.1A12.171,12.171,0,0,0,5.726.871a8.141,8.141,0,0,0-2.94,1.915A8.11,8.11,0,0,0,.871,5.726,12.175,12.175,0,0,0,.1,9.755C.019,11.525,0,12.091,0,16.6s.019,5.073.1,6.843a12.174,12.174,0,0,0,.771,4.029,8.114,8.114,0,0,0,1.915,2.94,8.161,8.161,0,0,0,2.94,1.915,12.182,12.182,0,0,0,4.029.771c1.771.08,2.336.1,6.843.1s5.073-.019,6.843-.1a12.174,12.174,0,0,0,4.029-.771,8.486,8.486,0,0,0,4.855-4.855,12.141,12.141,0,0,0,.771-4.029c.08-1.771.1-2.336.1-6.843s-.019-5.073-.1-6.843a12.17,12.17,0,0,0-.771-4.029,8.163,8.163,0,0,0-1.915-2.94A8.122,8.122,0,0,0,27.472.871,12.155,12.155,0,0,0,23.443.1C21.673.02,21.107,0,16.6,0S11.526.019,9.755.1"/><path class="b" d="M11.067,16.6A5.533,5.533,0,1,1,16.6,22.132,5.533,5.533,0,0,1,11.067,16.6m-2.991,0A8.523,8.523,0,1,0,16.6,8.075,8.523,8.523,0,0,0,8.075,16.6M23.467,7.737A1.992,1.992,0,1,0,25.46,5.746h0a1.993,1.993,0,0,0-1.992,1.991M9.893,30.109a9.174,9.174,0,0,1-3.082-.571A5.159,5.159,0,0,1,4.9,28.3a5.121,5.121,0,0,1-1.242-1.908,9.165,9.165,0,0,1-.571-3.082c-.08-1.75-.1-2.275-.1-6.708s.017-4.957.1-6.708a9.234,9.234,0,0,1,.571-3.082A5.159,5.159,0,0,1,4.9,4.9,5.115,5.115,0,0,1,6.81,3.658a9.165,9.165,0,0,1,3.082-.571c1.75-.08,2.275-.1,6.706-.1s4.957.017,6.708.1a9.234,9.234,0,0,1,3.082.571A5.142,5.142,0,0,1,28.3,4.9a5.142,5.142,0,0,1,1.242,1.909,9.165,9.165,0,0,1,.571,3.082c.08,1.751.1,2.275.1,6.708s-.016,4.957-.1,6.708a9.208,9.208,0,0,1-.571,3.082,5.5,5.5,0,0,1-3.151,3.149,9.165,9.165,0,0,1-3.082.571c-1.75.08-2.275.1-6.708.1s-4.957-.016-6.706-.1M9.755.1A12.171,12.171,0,0,0,5.726.871a8.141,8.141,0,0,0-2.94,1.915A8.11,8.11,0,0,0,.871,5.726,12.175,12.175,0,0,0,.1,9.755C.019,11.525,0,12.091,0,16.6s.019,5.073.1,6.843a12.174,12.174,0,0,0,.771,4.029,8.114,8.114,0,0,0,1.915,2.94,8.161,8.161,0,0,0,2.94,1.915,12.182,12.182,0,0,0,4.029.771c1.771.08,2.336.1,6.843.1s5.073-.019,6.843-.1a12.174,12.174,0,0,0,4.029-.771,8.486,8.486,0,0,0,4.855-4.855,12.141,12.141,0,0,0,.771-4.029c.08-1.771.1-2.336.1-6.843s-.019-5.073-.1-6.843a12.17,12.17,0,0,0-.771-4.029,8.163,8.163,0,0,0-1.915-2.94A8.122,8.122,0,0,0,27.472.871,12.155,12.155,0,0,0,23.443.1C21.673.02,21.107,0,16.6,0S11.526.019,9.755.1"/></g></g></svg>