<svg xmlns="http://www.w3.org/2000/svg" width="57" height="57" viewBox="0 0 57 57"><defs><style>.a{fill:#373737;}.b{fill:#fff;}</style></defs><g transform="translate(-171 -4736)"><circle class="a" cx="28.5" cy="28.5" r="28.5" transform="translate(171 4736)"/><path class="b" d="M509.747,206.446a16.711,16.711,0,0,1,3.7-6.733c1.069-1.115,1.62-1.468.992-.241a6.716,6.716,0,0,1,.986-.675c1.733-.818,1.61-.132.416.6,3.26-1.166,3.146.319-.3,1.058a6.923,6.923,0,0,1,6.676,5.661c.12.528-.023.478.518.573a6.859,6.859,0,0,0,3.335-.145c-.115.788-1.158,1.3-2.784,1.64-.6.126-.727.093,0,.255a11.143,11.143,0,0,0,2.936.2,4.86,4.86,0,0,1-3.74,1.446,12.937,12.937,0,0,1-6.24,7.99c-6.861,3.894-16.848,3.329-21.856-3.748,3.287,2.578,8.155,3.147,11.77-.447-2.369,0-2.983-1.773-1.1-2.731a3.941,3.941,0,0,1-3.571-1.6c-.252-.387-.254-.417.156-.713a3.356,3.356,0,0,1,1.7-.521c-1.841-.527-2.965-1.489-3.356-2.778-.129-.427-.149-.405.285-.515a8,8,0,0,1,1.461-.189,4.885,4.885,0,0,1-2.529-3.139c-.208-1.122.007-.834.846-.513C503.79,202.621,507.533,204.163,509.747,206.446Z" transform="translate(-310 4554.677)"/></g></svg>