<svg xmlns="http://www.w3.org/2000/svg" width="57" height="57" viewBox="0 0 57 57"><defs><style>.a{fill:#373737;}.b{fill:#fff;}</style></defs><g transform="translate(-317 -4736)"><circle class="a" cx="28.5" cy="28.5" r="28.5" transform="translate(317 4736)"/><path class="b" d="M10.889.082C5.566.676.261,4.983.042,11.136-.1,14.892.971,17.71,4.546,18.5c1.551-2.737-.5-3.341-.819-5.32C2.416,5.068,13.085-.465,18.668,5.2c3.863,3.922,1.32,15.989-4.911,14.735-5.968-1.2,2.921-10.8-1.842-12.69-3.872-1.533-5.93,4.689-4.094,7.779C6.745,20.338,4.427,25.345,5.365,32.011c3.043-2.208,4.069-6.437,4.911-10.847,1.53.929,2.346,1.9,4.3,2.046,7.2.557,11.216-7.185,10.234-14.325C23.935,2.553,17.617-.669,10.889.082Z" transform="translate(332.97 4748.025)"/></g></svg>